<?xml version="1.0" encoding="UTF-8"?><svg id="Layer_1" xmlns="http://www.w3.org/2000/svg" width="512" height="512" viewBox="0 0 512 512"><defs><style>.cls-1{fill:#fff;}.cls-2{fill:#ffb400;}</style></defs><circle cx="256" cy="256" r="252"/><polygon class="cls-2" points="186.5 262 156.5 236.6 238.5 81.5 238.8 162.7 186.5 262"/><polygon class="cls-2" points="325.8 262 355.8 236.6 273.9 81.5 273.6 162.7 325.8 262"/><polygon class="cls-2" points="297.5 266.2 311.7 254.1 272.9 180.8 272.8 219.2 297.5 266.2"/><polygon class="cls-2" points="218.8 266.2 204.6 254.1 243.4 180.8 243.5 219.2 218.8 266.2"/><polygon class="cls-1" points="67.2 400.7 146.8 248.6 241.4 328.9 241.4 377.6 159.5 309.8 112.6 400.7 67.2 400.7"/><polygon class="cls-1" points="444.8 400.5 399.4 400.6 352.5 309.7 270.6 377.5 270.6 328.7 288.6 343.8 274.7 325.3 365.2 248.5 444.8 400.5"/><rect class="cls-1" x="256.8" y="49" width="1.4" height="383" rx=".7" ry=".7"/></svg>